<svg width="262" height="202" viewBox="0 0 262 202" fill="none" xmlns="http://www.w3.org/2000/svg">
<g clip-path="url(#clip0_1_55)" filter="url(#filter0_d_1_55)">
<path d="M27.4402 193.695L27.4284 193.772C27.4143 193.697 27.4008 193.621 27.3879 193.545C27.3644 193.423 27.344 193.301 27.3248 193.178C26.5621 188.377 26.9818 183.461 28.5476 178.859C28.8486 177.96 29.1914 177.078 29.576 176.213C31.0468 172.861 33.132 169.814 35.7238 167.23C36.5653 166.369 37.5254 165.632 38.5751 165.042C38.7293 164.96 38.8842 164.883 39.0426 164.812C40.0134 164.341 41.1064 164.182 42.171 164.358C42.5577 164.431 42.9325 164.557 43.2848 164.732C43.4083 164.792 43.5272 164.858 43.6439 164.929C44.3555 165.395 44.9631 166.004 45.4286 166.716C45.8941 167.428 46.2076 168.229 46.3494 169.068C46.5516 170.32 46.5053 171.599 46.2133 172.833C46.1882 172.95 46.1613 173.068 46.1324 173.185C45.9254 174.007 45.6652 174.815 45.3536 175.604C42.2344 183.629 35.5311 190.75 27.4402 193.695Z" fill="#F2F2F2"/>
<path d="M43.264 164.758C40.8301 168.255 38.5309 171.842 36.3665 175.517C34.2047 179.188 32.1843 182.939 30.3052 186.768C29.254 188.91 28.2488 191.074 27.2895 193.259C27.1833 193.501 27.5416 193.712 27.6492 193.467C29.3623 189.565 31.2214 185.732 33.2265 181.968C35.2303 178.208 37.3749 174.527 39.6602 170.926C40.9388 168.911 42.26 166.924 43.6237 164.965C43.7762 164.746 43.4159 164.54 43.264 164.758Z" fill="white"/>
<path d="M45.8683 172.854C44.0394 175.231 41.3472 176.791 38.3755 177.196C37.5465 177.309 36.7071 177.326 35.8742 177.246C35.6078 177.221 35.6059 177.636 35.8701 177.661C38.9696 177.922 42.0468 176.949 44.4337 174.955C45.1033 174.395 45.7054 173.76 46.228 173.061C46.388 172.848 46.0273 172.642 45.8683 172.854Z" fill="white"/>
<path d="M30.2471 185.748C29.8219 185.142 29.4686 184.489 29.1943 183.801C28.5678 182.234 28.3454 180.534 28.5476 178.859C28.8486 177.96 29.1914 177.078 29.576 176.213C29.5993 176.247 29.6133 176.286 29.6166 176.328C29.62 176.369 29.6126 176.41 29.5951 176.447C29.3243 177.097 29.1296 177.775 29.0149 178.469C28.6033 180.944 29.1748 183.482 30.6075 185.542C30.6257 185.564 30.6377 185.591 30.6425 185.62C30.6474 185.648 30.6448 185.677 30.6351 185.704C30.6191 185.74 30.5939 185.772 30.562 185.795C30.5302 185.818 30.4928 185.833 30.4535 185.837C30.4143 185.842 30.3746 185.836 30.3384 185.82C30.3022 185.804 30.2707 185.779 30.2471 185.748Z" fill="white"/>
<path d="M38.6372 164.779C38.1366 166.774 38.2857 168.876 39.0627 170.78C39.0902 170.828 39.1354 170.863 39.1884 170.877C39.2414 170.892 39.298 170.885 39.3459 170.858C39.3927 170.829 39.4268 170.784 39.4412 170.732C39.4556 170.679 39.4491 170.623 39.4231 170.575C38.6955 168.768 38.5605 166.777 39.0376 164.888C39.05 164.836 39.0415 164.781 39.014 164.734C38.9865 164.688 38.9421 164.654 38.8902 164.64C38.8382 164.626 38.7828 164.633 38.7356 164.658C38.6884 164.684 38.6531 164.728 38.6372 164.779Z" fill="white"/>
<path d="M27.3892 183.672L27.4144 183.745C27.3672 183.686 27.3196 183.624 27.2731 183.563C27.1956 183.466 27.1208 183.367 27.0467 183.267C24.1409 179.37 22.2294 174.822 21.4779 170.019C21.3271 169.083 21.221 168.143 21.1595 167.198C20.9051 163.546 21.3364 159.88 22.431 156.387C22.7761 155.233 23.2842 154.135 23.9397 153.125C24.0383 152.981 24.1396 152.841 24.2467 152.704C24.8876 151.836 25.7819 151.188 26.8065 150.849C27.1827 150.734 27.5731 150.671 27.9665 150.663C28.1038 150.659 28.2397 150.662 28.3757 150.67C29.2227 150.753 30.0434 151.009 30.7865 151.424C31.5296 151.838 32.1792 152.402 32.6945 153.079C33.4549 154.094 34.0082 155.248 34.3227 156.476C34.3552 156.592 34.3859 156.708 34.4147 156.825C34.6133 157.65 34.7582 158.486 34.8486 159.329C35.8145 167.885 33.186 177.305 27.3892 183.672Z" fill="#F2F2F2"/>
<path d="M27.9601 150.695C27.4294 154.923 27.0592 159.167 26.8495 163.427C26.6408 167.683 26.5937 171.942 26.7082 176.206C26.7724 178.591 26.8874 180.975 27.0532 183.356C27.0715 183.619 27.4865 183.639 27.468 183.372C27.1727 179.121 27.0386 174.863 27.0656 170.599C27.0934 166.338 27.2827 162.082 27.6337 157.831C27.8301 155.453 28.0772 153.08 28.3748 150.712C28.4081 150.447 27.9932 150.431 27.9601 150.695Z" fill="white"/>
<path d="M34.027 156.655C33.5115 159.609 31.8522 162.242 29.4088 163.981C28.7272 164.466 27.9916 164.871 27.2168 165.187C26.9692 165.288 27.1604 165.657 27.406 165.556C30.2719 164.347 32.5453 162.057 33.7326 159.182C34.0656 158.375 34.3036 157.533 34.4418 156.671C34.4846 156.408 34.0695 156.394 34.027 156.655Z" fill="white"/>
<path d="M26.183 175.33C25.5251 174.991 24.9088 174.576 24.3466 174.095C23.0637 172.998 22.0772 171.596 21.4779 170.019C21.3271 169.083 21.221 168.143 21.1595 167.198C21.196 167.217 21.2267 167.246 21.2488 167.28C21.2709 167.315 21.2835 167.355 21.2854 167.396C21.3472 168.097 21.4899 168.789 21.7108 169.456C22.4959 171.839 24.1809 173.822 26.4065 174.98C26.433 174.991 26.4561 175.01 26.4736 175.033C26.4911 175.056 26.5025 175.083 26.5065 175.111C26.509 175.151 26.5013 175.19 26.4839 175.225C26.4665 175.261 26.4401 175.291 26.4074 175.313C26.3747 175.335 26.3368 175.348 26.2974 175.351C26.258 175.354 26.2186 175.347 26.183 175.33Z" fill="white"/>
<path d="M23.8726 152.863C24.3558 154.862 25.4645 156.655 27.0371 157.98C27.0836 158.01 27.1397 158.019 27.1934 158.008C27.2471 157.996 27.2939 157.963 27.3238 157.917C27.3521 157.87 27.3613 157.815 27.3496 157.761C27.3378 157.708 27.306 157.661 27.2607 157.63C25.7771 156.369 24.7326 154.668 24.2779 152.774C24.2645 152.722 24.2314 152.677 24.1856 152.649C24.1397 152.621 24.0847 152.611 24.0321 152.623C23.9795 152.634 23.9335 152.666 23.9037 152.711C23.8739 152.756 23.8628 152.81 23.8726 152.863Z" fill="white"/>
<path d="M27.5688 193.746L27.6297 193.795C27.5578 193.77 27.4845 193.744 27.4125 193.717C27.2949 193.677 27.1787 193.634 27.0625 193.59C22.5148 191.871 18.4551 189.069 15.235 185.426C14.6041 184.719 14.0083 183.984 13.4475 183.221C11.2667 180.281 9.65533 176.959 8.69657 173.427C8.36612 172.269 8.20261 171.07 8.211 169.866C8.21654 169.692 8.2262 169.519 8.24282 169.346C8.31532 168.269 8.7199 167.242 9.40082 166.404C9.65575 166.105 9.95092 165.842 10.2779 165.623C10.3914 165.545 10.5076 165.475 10.6266 165.408C11.3847 165.022 12.2144 164.796 13.0638 164.745C13.9132 164.694 14.764 164.819 15.5629 165.112C16.75 165.557 17.8378 166.232 18.7643 167.098C18.8542 167.178 18.9427 167.259 19.03 167.342C19.6413 167.93 20.2138 168.557 20.7441 169.218C26.166 175.908 29.0243 185.26 27.5688 193.746Z" fill="#F2F2F2"/>
<path d="M10.29 165.654C12.1198 169.502 14.0935 173.277 16.211 176.979C18.3272 180.677 20.5816 184.292 22.9743 187.823C24.313 189.798 25.6934 191.744 27.1155 193.661C27.2728 193.873 27.6332 193.666 27.4739 193.452C24.9357 190.029 22.5296 186.514 20.2555 182.905C17.9841 179.3 15.8516 175.613 13.8581 171.842C12.7429 169.732 11.673 167.6 10.6484 165.444C10.5337 165.203 10.1758 165.413 10.29 165.654Z" fill="white"/>
<path d="M18.6114 167.408C19.7683 170.175 19.7878 173.286 18.6659 176.068C18.3528 176.844 17.951 177.581 17.4683 178.264C17.3143 178.483 17.674 178.691 17.8267 178.474C19.5904 175.912 20.2723 172.757 19.7243 169.695C19.5705 168.836 19.3173 167.998 18.9698 167.198C18.8643 166.953 18.5066 167.165 18.6114 167.408Z" fill="white"/>
<path d="M22.0598 187.367C21.3229 187.436 20.5805 187.419 19.8476 187.316C18.1759 187.083 16.5898 186.433 15.235 185.426C14.6041 184.719 14.0083 183.984 13.4476 183.221C13.4887 183.217 13.5299 183.225 13.5673 183.242C13.6047 183.26 13.6368 183.287 13.6606 183.32C14.0901 183.878 14.5827 184.383 15.1285 184.827C17.0735 186.412 19.5607 187.175 22.0598 186.952C22.0883 186.948 22.1175 186.95 22.1447 186.96C22.1718 186.97 22.1959 186.987 22.2147 187.009C22.2381 187.041 22.2527 187.078 22.2571 187.117C22.2616 187.156 22.2557 187.196 22.24 187.232C22.2244 187.269 22.1995 187.3 22.1679 187.324C22.1362 187.347 22.099 187.362 22.0598 187.367Z" fill="white"/>
<path d="M8.0135 169.682C9.4973 171.106 11.3969 172.019 13.4357 172.289C13.5477 172.304 13.6421 172.183 13.6432 172.081C13.6419 172.027 13.6196 171.975 13.581 171.936C13.5423 171.897 13.4903 171.875 13.4357 171.874C11.506 171.609 9.7101 170.739 8.30699 169.388C8.11461 169.203 7.82075 169.496 8.0135 169.682Z" fill="white"/>
<path d="M55.8981 139.006C56.3034 138.728 56.6429 138.364 56.8926 137.941C57.1423 137.518 57.2961 137.045 57.3433 136.556C57.3905 136.067 57.3299 135.573 57.1657 135.11C57.0015 134.647 56.7378 134.225 56.3931 133.875L57.697 104.77L51.0586 105.515L51.4443 133.984C50.8943 134.602 50.5902 135.401 50.5896 136.228C50.5889 137.055 50.8918 137.854 51.4408 138.473C51.9897 139.092 52.7467 139.488 53.5682 139.586C54.3897 139.684 55.2187 139.478 55.8981 139.006Z" fill="#FFB8B8"/>
<path d="M68.0082 188.275L71.7864 188.939L75.5206 174.682L70.5702 173.702L68.0082 188.275Z" fill="#FFB8B8"/>
<path d="M78.4559 193.728L66.5818 191.641L67.3883 187.053L74.6747 188.334C75.2772 188.44 75.8529 188.663 76.369 188.992C76.8851 189.32 77.3314 189.747 77.6825 190.248C78.0337 190.749 78.2827 191.314 78.4154 191.911C78.5481 192.508 78.5619 193.126 78.4559 193.728Z" fill="#2F2E41"/>
<path d="M57.638 190.166L61.4742 190.166L63.299 175.369L57.6374 175.369L57.638 190.166Z" fill="#FFB8B8"/>
<path d="M68.8724 193.727L56.8161 193.728L56.8159 189.07L64.214 189.07C65.4494 189.069 66.6343 189.56 67.5079 190.434C68.3815 191.307 68.8723 192.492 68.8724 193.727Z" fill="#2F2E41"/>
<path d="M73.9565 186.114C73.8967 186.114 73.8368 186.11 73.7774 186.103L69.2622 185.732C69.0567 185.708 68.8581 185.642 68.6788 185.539C68.4994 185.435 68.3428 185.297 68.2187 185.131C68.0945 184.965 68.0053 184.776 67.9565 184.575C67.9077 184.374 67.9003 184.165 67.9348 183.961L72.1041 160.593L69.2868 145.739C69.2639 145.618 69.198 145.51 69.1015 145.434C69.0049 145.358 68.8842 145.319 68.7615 145.325C68.6388 145.331 68.5224 145.382 68.4338 145.467C68.3453 145.552 68.2905 145.666 68.2796 145.789L64.7577 185.41C64.719 185.808 64.5274 186.175 64.2233 186.434C63.9191 186.693 63.5263 186.824 63.1276 186.799L58.8738 186.64C58.501 186.614 58.1508 186.452 57.8893 186.185C57.6278 185.918 57.473 185.565 57.4543 185.191L57.1684 137.703L79.222 134.947L80.7626 158.74L80.7564 158.765L75.44 184.947C75.3591 185.279 75.1689 185.575 74.8999 185.787C74.6309 185.998 74.2987 186.114 73.9565 186.114Z" fill="#2F2E41"/>
<path d="M64.4394 85.9092C68.6838 85.9092 72.1246 82.4685 72.1246 78.2241C72.1246 73.9797 68.6838 70.5389 64.4394 70.5389C60.195 70.5389 56.7543 73.9797 56.7543 78.2241C56.7543 82.4685 60.195 85.9092 64.4394 85.9092Z" fill="#FFB8B8"/>
<path d="M71.6807 141.174C70.4788 141.181 69.2999 140.844 68.2836 140.202C64.5609 137.876 60.3326 138.8 58.1435 139.559C57.9262 139.635 57.6946 139.661 57.4659 139.635C57.2373 139.609 57.0174 139.531 56.8229 139.408C56.6306 139.287 56.468 139.125 56.3475 138.932C56.227 138.74 56.1515 138.523 56.1269 138.297L52.146 102.743C51.4789 96.7865 55.0672 91.1859 60.678 89.4265C60.8888 89.3603 61.1032 89.2976 61.3211 89.2384C63.0672 88.765 64.8958 88.6799 66.6782 88.9893C68.4606 89.2987 70.1536 89.9949 71.6381 91.029C73.1501 92.0744 74.4146 93.4386 75.3427 95.0254C76.2707 96.6122 76.8397 98.3831 77.0096 100.214L80.3609 136.005C80.3837 136.237 80.3524 136.471 80.2695 136.688C80.1866 136.906 80.0543 137.101 79.883 137.259C78.7083 138.346 75.2985 141.174 71.6807 141.174Z" fill="#63FFFF"/>
<path d="M59.5586 110.368L50.5773 109.38C50.3218 109.352 50.0753 109.269 49.8547 109.137C49.634 109.005 49.4444 108.827 49.2988 108.615C49.1531 108.404 49.0548 108.163 49.0106 107.91C48.9663 107.656 48.9772 107.397 49.0424 107.148L51.3285 98.4348C51.4797 97.1282 52.1428 95.9348 53.1725 95.1164C54.2022 94.298 55.5144 93.9212 56.8214 94.0688C58.1284 94.2164 59.3236 94.8763 60.1449 95.9037C60.9661 96.9311 61.3465 98.2423 61.2025 99.5497L61.5419 108.522C61.5515 108.779 61.5057 109.035 61.4074 109.273C61.3092 109.51 61.161 109.724 60.9728 109.899C60.7846 110.074 60.5608 110.207 60.3168 110.288C60.0728 110.368 59.8142 110.396 59.5586 110.368Z" fill="#63FFFF"/>
<path d="M80.3249 137.759C80.6938 137.435 80.987 137.033 81.1839 136.583C81.3808 136.133 81.4765 135.645 81.4644 135.153C81.4523 134.662 81.3327 134.179 81.1139 133.739C80.895 133.299 80.5824 132.913 80.198 132.607L77.9849 103.556L71.4802 105.021L75.2984 133.311C74.827 133.991 74.6213 134.82 74.7204 135.642C74.8194 136.463 75.2164 137.22 75.8359 137.768C76.4555 138.316 77.2547 138.618 78.082 138.617C78.9094 138.615 79.7074 138.31 80.3249 137.759Z" fill="#FFB8B8"/>
<path d="M68.9863 108.541C68.798 108.366 68.6497 108.153 68.5515 107.915C68.4533 107.678 68.4076 107.422 68.4173 107.165L68.7567 98.1922C68.6127 96.8847 68.9931 95.5736 69.8143 94.5461C70.6356 93.5187 71.8307 92.8589 73.1378 92.7113C74.4448 92.5637 75.757 92.9404 76.7867 93.7588C77.8164 94.5773 78.4795 95.7706 78.6307 97.0772L80.9168 105.79C80.982 106.039 80.9929 106.299 80.9486 106.552C80.9044 106.805 80.8061 107.046 80.6604 107.258C80.5148 107.47 80.3252 107.648 80.1045 107.78C79.8839 107.912 79.6374 107.994 79.3819 108.023L70.4006 109.01C70.145 109.038 69.8863 109.011 69.6423 108.93C69.3982 108.849 69.1745 108.717 68.9863 108.541Z" fill="#63FFFF"/>
<path d="M63.9823 86.1988C63.8457 86.1986 63.7096 86.1827 63.5766 86.1514L63.5376 86.1419C56.7807 85.1082 55.2874 81.1945 54.9596 79.56C54.6204 77.8678 55.0067 76.2344 55.8796 75.6C55.4037 74.0972 55.4801 72.7648 56.1072 71.638C57.2009 69.6729 59.5745 69.0085 59.8928 68.9272C61.7884 67.5288 64.0564 68.4623 64.469 68.6516C68.1358 67.295 69.5372 68.4242 69.7907 68.6763C71.4298 68.9707 72.4288 69.6039 72.7605 70.5586C73.3835 72.3519 71.4133 74.5825 71.3292 74.6766L71.2855 74.7253L68.3504 74.8651C68.0719 74.8784 67.7993 74.9501 67.5503 75.0755C67.3013 75.2009 67.0814 75.3773 66.9049 75.5932C66.7285 75.8091 66.5993 76.0596 66.5259 76.3286C66.4526 76.5976 66.4365 76.879 66.4789 77.1546C66.5583 77.5102 66.6587 77.8608 66.7794 78.2045C67.2807 79.771 67.6562 81.1092 67.1718 81.618C67.0621 81.7165 66.9268 81.782 66.7816 81.8072C66.6363 81.8324 66.4869 81.8162 66.3504 81.7604C65.8915 81.6379 65.5799 81.6635 65.4247 81.8369C65.1837 82.1058 65.2572 82.7865 65.6319 83.7536C65.7494 84.0594 65.781 84.3915 65.7233 84.714C65.6657 85.0365 65.5209 85.3371 65.3046 85.5832C65.1418 85.7753 64.9392 85.9297 64.711 86.036C64.4827 86.1423 64.2341 86.1978 63.9823 86.1988Z" fill="#2F2E41"/>
<path d="M154.743 110.767H116.882C115.472 110.765 114.12 110.204 113.122 109.207C112.125 108.21 111.564 106.858 111.563 105.447V48.5523C111.564 47.142 112.125 45.7899 113.122 44.7927C114.12 43.7955 115.472 43.2345 116.882 43.233H154.743C156.153 43.2345 157.505 43.7955 158.502 44.7927C159.5 45.7899 160.061 47.142 160.062 48.5523V105.447C160.061 106.858 159.5 108.21 158.502 109.207C157.505 110.204 156.153 110.765 154.743 110.767ZM116.882 43.8588C115.638 43.8602 114.445 44.3551 113.565 45.235C112.685 46.1149 112.19 47.3079 112.188 48.5523V105.447C112.19 106.692 112.685 107.885 113.565 108.765C114.445 109.645 115.638 110.14 116.882 110.141H154.743C155.987 110.14 157.18 109.645 158.06 108.765C158.94 107.885 159.435 106.692 159.436 105.447V48.5523C159.435 47.3079 158.94 46.1149 158.06 45.235C157.18 44.3551 155.987 43.8602 154.743 43.8588H116.882Z" fill="#3F3D56"/>
<path d="M148.954 70.5855H122.671C121.965 70.5847 121.289 70.3042 120.791 69.8056C120.292 69.307 120.012 68.631 120.011 67.9258V55.4098C120.012 54.7046 120.292 54.0286 120.791 53.53C121.289 53.0314 121.965 52.7509 122.671 52.7501H148.954C149.659 52.7509 150.335 53.0314 150.834 53.53C151.333 54.0286 151.613 54.7047 151.614 55.4098V67.9258C151.613 68.6309 151.333 69.307 150.834 69.8056C150.335 70.3042 149.659 70.5847 148.954 70.5855Z" fill="#63FFFF"/>
<path d="M147.077 82.3192H124.548C123.884 82.3192 123.247 82.0555 122.778 81.586C122.309 81.1166 122.045 80.4799 122.045 79.816C122.045 79.1521 122.309 78.5154 122.778 78.046C123.247 77.5765 123.884 77.3128 124.548 77.3128H147.077C147.741 77.3128 148.377 77.5765 148.847 78.046C149.316 78.5154 149.58 79.1521 149.58 79.816C149.58 80.4799 149.316 81.1166 148.847 81.586C148.377 82.0555 147.741 82.3192 147.077 82.3192Z" fill="#CCCCCC"/>
<path d="M147.077 91.7062H124.548C123.884 91.7062 123.247 91.4425 122.778 90.973C122.309 90.5036 122.045 89.8669 122.045 89.203C122.045 88.5391 122.309 87.9024 122.778 87.433C123.247 86.9635 123.884 86.6998 124.548 86.6998H147.077C147.741 86.6998 148.377 86.9635 148.847 87.433C149.316 87.9024 149.58 88.5391 149.58 89.203C149.58 89.8669 149.316 90.5036 148.847 90.973C148.377 91.4425 147.741 91.7062 147.077 91.7062Z" fill="#CCCCCC"/>
<path d="M147.077 101.093H124.548C123.884 101.093 123.247 100.829 122.778 100.36C122.309 99.8906 122.045 99.2539 122.045 98.59C122.045 97.9261 122.309 97.2894 122.778 96.82C123.247 96.3505 123.884 96.0868 124.548 96.0868H147.077C147.741 96.0868 148.377 96.3505 148.847 96.82C149.316 97.2894 149.58 97.9261 149.58 98.59C149.58 99.2539 149.316 99.8906 148.847 100.36C148.377 100.829 147.741 101.093 147.077 101.093Z" fill="#CCCCCC"/>
<path d="M247.049 142.683H209.188C207.777 142.681 206.425 142.12 205.428 141.123C204.431 140.126 203.87 138.774 203.868 137.363V80.4681C203.87 79.0578 204.431 77.7058 205.428 76.7086C206.425 75.7113 207.777 75.1504 209.188 75.1488H247.049C248.459 75.1504 249.811 75.7113 250.808 76.7086C251.805 77.7058 252.366 79.0578 252.368 80.4681V137.363C252.366 138.774 251.805 140.126 250.808 141.123C249.811 142.12 248.459 142.681 247.049 142.683ZM209.188 75.7746C207.943 75.776 206.75 76.271 205.87 77.1509C204.99 78.0308 204.495 79.2237 204.494 80.4681V137.363C204.495 138.608 204.99 139.801 205.87 140.681C206.75 141.56 207.943 142.055 209.188 142.057H247.049C248.293 142.055 249.486 141.56 250.366 140.681C251.246 139.801 251.741 138.608 251.742 137.363V80.4681C251.741 79.2237 251.246 78.0308 250.366 77.1509C249.486 76.271 248.293 75.776 247.049 75.7746H209.188Z" fill="#3F3D56"/>
<path d="M239.382 89.203H216.854C216.19 89.203 215.553 88.9393 215.084 88.4698C214.614 88.0004 214.35 87.3637 214.35 86.6998C214.35 86.0359 214.614 85.3992 215.084 84.9298C215.553 84.4603 216.19 84.1966 216.854 84.1966H239.382C240.046 84.1966 240.683 84.4603 241.153 84.9298C241.622 85.3992 241.886 86.0359 241.886 86.6998C241.886 87.3637 241.622 88.0004 241.153 88.4698C240.683 88.9393 240.046 89.203 239.382 89.203Z" fill="#CCCCCC"/>
<path d="M239.382 98.59H216.854C216.19 98.59 215.553 98.3263 215.084 97.8568C214.614 97.3874 214.35 96.7507 214.35 96.0868C214.35 95.4229 214.614 94.7862 215.084 94.3168C215.553 93.8473 216.19 93.5836 216.854 93.5836H239.382C240.046 93.5836 240.683 93.8473 241.153 94.3168C241.622 94.7862 241.886 95.4229 241.886 96.0868C241.886 96.7507 241.622 97.3874 241.153 97.8568C240.683 98.3263 240.046 98.59 239.382 98.59Z" fill="#CCCCCC"/>
<path d="M241.26 122.527H214.976C214.271 122.526 213.595 122.245 213.096 121.747C212.598 121.248 212.317 120.572 212.317 119.867V107.351C212.317 106.646 212.598 105.97 213.096 105.471C213.595 104.973 214.271 104.692 214.976 104.691H241.26C241.965 104.692 242.641 104.973 243.14 105.471C243.638 105.97 243.919 106.646 243.919 107.351V119.867C243.919 120.572 243.638 121.248 243.14 121.747C242.641 122.245 241.965 122.526 241.26 122.527Z" fill="#E6E6E6"/>
<path d="M239.382 133.635H216.854C216.19 133.635 215.553 133.371 215.084 132.902C214.614 132.432 214.35 131.796 214.35 131.132C214.35 130.468 214.614 129.831 215.084 129.362C215.553 128.892 216.19 128.628 216.854 128.628H239.382C240.046 128.628 240.683 128.892 241.153 129.362C241.622 129.831 241.886 130.468 241.886 131.132C241.886 131.796 241.622 132.432 241.153 132.902C240.683 133.371 240.046 133.635 239.382 133.635Z" fill="#CCCCCC"/>
<path d="M223.894 52.2544H186.033C184.623 52.2528 183.271 51.6918 182.273 50.6946C181.276 49.6974 180.715 48.3453 180.714 46.935V11.63C180.715 10.2197 181.276 8.86766 182.273 7.87044C183.271 6.87322 184.623 6.31229 186.033 6.3107H223.894C225.304 6.31229 226.656 6.87322 227.653 7.87044C228.651 8.86766 229.212 10.2197 229.213 11.63V46.935C229.212 48.3453 228.651 49.6974 227.653 50.6946C226.656 51.6918 225.304 52.2528 223.894 52.2544ZM186.033 6.9365C184.789 6.93791 183.596 7.43286 182.716 8.31275C181.836 9.19265 181.341 10.3856 181.339 11.63V46.935C181.341 48.1794 181.836 49.3724 182.716 50.2523C183.596 51.1322 184.789 51.6271 186.033 51.6286H223.894C225.138 51.6271 226.331 51.1322 227.211 50.2523C228.091 49.3724 228.586 48.1794 228.587 46.935V11.63C228.586 10.3856 228.091 9.19265 227.211 8.31275C226.331 7.43286 225.138 6.93791 223.894 6.9365H186.033Z" fill="#3F3D56"/>
<path d="M216.228 41.1728H193.699C193.035 41.1728 192.398 40.9091 191.929 40.4396C191.46 39.9702 191.196 39.3335 191.196 38.6696C191.196 38.0057 191.46 37.369 191.929 36.8996C192.398 36.4301 193.035 36.1664 193.699 36.1664H216.228C216.892 36.1664 217.528 36.4301 217.998 36.8996C218.467 37.369 218.731 38.0057 218.731 38.6696C218.731 39.3335 218.467 39.9702 217.998 40.4396C217.528 40.9091 216.892 41.1728 216.228 41.1728Z" fill="#CCCCCC"/>
<path d="M216.228 31.7858H193.699C193.035 31.7858 192.398 31.522 191.929 31.0526C191.46 30.5832 191.196 29.9465 191.196 29.2826C191.196 28.6187 191.46 27.982 191.929 27.5125C192.398 27.0431 193.035 26.7794 193.699 26.7794H216.228C216.892 26.7794 217.528 27.0431 217.998 27.5125C218.467 27.982 218.731 28.6187 218.731 29.2826C218.731 29.9465 218.467 30.5832 217.998 31.0526C217.528 31.522 216.892 31.7858 216.228 31.7858Z" fill="#CCCCCC"/>
<path d="M216.228 22.3988H193.699C193.035 22.3988 192.398 22.135 191.929 21.6656C191.46 21.1961 191.196 20.5594 191.196 19.8956C191.196 19.2317 191.46 18.595 191.929 18.1255C192.398 17.6561 193.035 17.3923 193.699 17.3923H216.228C216.892 17.3923 217.528 17.6561 217.998 18.1255C218.467 18.595 218.731 19.2317 218.731 19.8956C218.731 20.5594 218.467 21.1961 217.998 21.6656C217.528 22.135 216.892 22.3988 216.228 22.3988Z" fill="#CCCCCC"/>
<path d="M156.933 51.9415C160.908 51.9415 164.13 48.7194 164.13 44.7448C164.13 40.7701 160.908 37.548 156.933 37.548C152.959 37.548 149.736 40.7701 149.736 44.7448C149.736 48.7194 152.959 51.9415 156.933 51.9415Z" fill="#63FFFF"/>
<path d="M156.22 47.4901C156.058 47.4904 155.9 47.4381 155.771 47.341L155.763 47.3349L154.071 46.04C153.993 45.9802 153.927 45.9053 153.877 45.8199C153.827 45.7344 153.795 45.6399 153.782 45.5419C153.768 45.4439 153.775 45.3442 153.8 45.2487C153.826 45.1531 153.87 45.0635 153.93 44.985C153.99 44.9065 154.065 44.8406 154.151 44.7912C154.236 44.7417 154.331 44.7097 154.429 44.6969C154.527 44.6841 154.627 44.6908 154.722 44.7166C154.818 44.7423 154.907 44.7867 154.985 44.8471L156.081 45.6871L158.67 42.311C158.73 42.2327 158.805 42.1669 158.89 42.1176C158.975 42.0682 159.07 42.0362 159.168 42.0232C159.265 42.0103 159.365 42.0168 159.46 42.0423C159.555 42.0678 159.645 42.1119 159.723 42.1719L159.707 42.1938L159.724 42.1722C159.882 42.2936 159.985 42.4727 160.011 42.6702C160.037 42.8677 159.984 43.0675 159.863 43.2257L156.818 47.1969C156.747 47.2884 156.657 47.3625 156.553 47.4133C156.449 47.4642 156.335 47.4905 156.22 47.4901Z" fill="white"/>
<path d="M250.803 84.1702C254.778 84.1702 258 80.9481 258 76.9735C258 72.9989 254.778 69.7768 250.803 69.7768C246.829 69.7768 243.607 72.9989 243.607 76.9735C243.607 80.9481 246.829 84.1702 250.803 84.1702Z" fill="#3F3D56"/>
<path d="M250.09 79.7189C249.928 79.7192 249.77 79.6668 249.641 79.5697L249.633 79.5637L247.942 78.2688C247.863 78.2089 247.797 78.1341 247.747 78.0486C247.697 77.9631 247.665 77.8687 247.652 77.7706C247.639 77.6726 247.645 77.573 247.67 77.4774C247.696 77.3818 247.74 77.2922 247.8 77.2137C247.86 77.1352 247.935 77.0694 248.021 77.0199C248.107 76.9705 248.201 76.9384 248.299 76.9256C248.397 76.9128 248.497 76.9195 248.592 76.9453C248.688 76.9711 248.777 77.0155 248.856 77.0759L249.951 77.9159L252.54 74.5397C252.6 74.4614 252.675 74.3957 252.76 74.3463C252.846 74.297 252.94 74.2649 253.038 74.252C253.136 74.2391 253.235 74.2456 253.33 74.2711C253.426 74.2966 253.515 74.3406 253.593 74.4006L253.577 74.4225L253.594 74.401C253.752 74.5224 253.855 74.7015 253.881 74.899C253.907 75.0965 253.854 75.2962 253.733 75.4545L250.688 79.4256C250.617 79.5171 250.527 79.5912 250.423 79.6421C250.319 79.6929 250.205 79.7192 250.09 79.7189Z" fill="white"/>
<path d="M227.962 14.3934C231.936 14.3934 235.158 11.1713 235.158 7.1967C235.158 3.22206 231.936 -1.52588e-05 227.962 -1.52588e-05C223.987 -1.52588e-05 220.765 3.22206 220.765 7.1967C220.765 11.1713 223.987 14.3934 227.962 14.3934Z" fill="#3F3D56"/>
<path d="M227.248 9.94209C227.086 9.94239 226.929 9.89004 226.799 9.79292L226.791 9.78688L225.1 8.49198C225.021 8.43211 224.955 8.35729 224.905 8.27181C224.856 8.18633 224.823 8.09187 224.81 7.99385C224.797 7.89583 224.803 7.79617 224.829 7.7006C224.854 7.60503 224.898 7.51543 224.958 7.43692C225.018 7.35842 225.093 7.29256 225.179 7.24313C225.265 7.19369 225.359 7.16165 225.457 7.14885C225.555 7.13604 225.655 7.14272 225.751 7.1685C225.846 7.19428 225.936 7.23866 226.014 7.29909L227.109 8.13909L229.698 4.76293C229.758 4.68462 229.833 4.6189 229.918 4.56954C230.004 4.52017 230.098 4.48811 230.196 4.4752C230.294 4.46228 230.393 4.46876 230.489 4.49427C230.584 4.51978 230.673 4.56382 230.752 4.62386L230.735 4.64571L230.752 4.62418C230.91 4.74557 231.013 4.92467 231.039 5.12217C231.065 5.31967 231.012 5.51944 230.891 5.67767L227.846 9.64884C227.776 9.74035 227.685 9.81441 227.581 9.86526C227.478 9.91612 227.364 9.94241 227.248 9.94209Z" fill="white"/>
<path d="M123.528 193.998H4.3129C4.22991 193.998 4.15033 193.965 4.09165 193.907C4.03297 193.848 4 193.768 4 193.685C4 193.602 4.03297 193.523 4.09165 193.464C4.15033 193.405 4.22991 193.372 4.3129 193.372H123.528C123.611 193.372 123.691 193.405 123.749 193.464C123.808 193.523 123.841 193.602 123.841 193.685C123.841 193.768 123.808 193.848 123.749 193.907C123.691 193.965 123.611 193.998 123.528 193.998Z" fill="#3F3D56"/>
</g>
<defs>
<filter id="filter0_d_1_55" x="0" y="0" width="262" height="201.998" filterUnits="userSpaceOnUse" color-interpolation-filters="sRGB">
<feFlood flood-opacity="0" result="BackgroundImageFix"/>
<feColorMatrix in="SourceAlpha" type="matrix" values="0 0 0 0 0 0 0 0 0 0 0 0 0 0 0 0 0 0 127 0" result="hardAlpha"/>
<feOffset dy="4"/>
<feGaussianBlur stdDeviation="2"/>
<feComposite in2="hardAlpha" operator="out"/>
<feColorMatrix type="matrix" values="0 0 0 0 0 0 0 0 0 0 0 0 0 0 0 0 0 0 0.25 0"/>
<feBlend mode="normal" in2="BackgroundImageFix" result="effect1_dropShadow_1_55"/>
<feBlend mode="normal" in="SourceGraphic" in2="effect1_dropShadow_1_55" result="shape"/>
</filter>
<clipPath id="clip0_1_55">
<rect width="254" height="193.998" fill="white" transform="translate(4)"/>
</clipPath>
</defs>
</svg>
